<svg xmlns="http://www.w3.org/2000/svg" xmlns:xlink="http://www.w3.org/1999/xlink" width="500" zoomAndPan="magnify" viewBox="0 0 375 374.999991" height="500" preserveAspectRatio="xMidYMid meet" version="1.0"><defs><g/></defs><rect x="-37.5" width="450" fill="#ffffff" y="-37.499999" height="449.999989" fill-opacity="1"/><rect x="-37.5" width="450" fill="#e4e2dd" y="-37.499999" height="449.999989" fill-opacity="1"/><path stroke-linecap="butt" transform="matrix(-0.75, 0, 0, -0.75, 317.832699, 137.54942)" fill="none" stroke-linejoin="miter" d="M 0.000890105 9.498185 L 51.985269 9.498185 " stroke="#365b6d" stroke-width="19" stroke-opacity="1" stroke-miterlimit="4"/><path stroke-linecap="butt" transform="matrix(0, -0.75, 0.75, 0, 303.705453, 162.41044)" fill="none" stroke-linejoin="miter" d="M 0.00037798 9.502106 L 51.984756 9.502106 " stroke="#365b6d" stroke-width="19" stroke-opacity="1" stroke-miterlimit="4"/><path stroke-linecap="butt" transform="matrix(1.167191, 0, 0, 1.167191, 57.906646, 237.692459)" fill="none" stroke-linejoin="miter" d="M -0.000339531 5.99975 L 33.406525 5.99975 " stroke="#365b6d" stroke-width="12" stroke-opacity="1" stroke-miterlimit="4"/><path stroke-linecap="butt" transform="matrix(0, 1.167191, -1.167191, 0, 71.904513, 212.717096)" fill="none" stroke-linejoin="miter" d="M 0.00141739 5.999164 L 33.404935 5.999164 " stroke="#365b6d" stroke-width="12" stroke-opacity="1" stroke-miterlimit="4"/><path stroke-linecap="butt" transform="matrix(0, 0.75, -0.75, 0, 72.018845, 123.422159)" fill="none" stroke-linejoin="miter" d="M -0.000378794 9.499085 L 51.989208 9.499085 " stroke="#365b6d" stroke-width="19" stroke-opacity="1" stroke-miterlimit="4"/><path stroke-linecap="butt" transform="matrix(-0.75, 0, 0, -0.75, 96.879879, 137.54942)" fill="none" stroke-linejoin="miter" d="M 0.00129692 9.498185 L 51.985675 9.498185 " stroke="#365b6d" stroke-width="19" stroke-opacity="1" stroke-miterlimit="4"/><path stroke-linecap="butt" transform="matrix(0, -0.75, 0.75, 0, 304.926342, 251.699748)" fill="none" stroke-linejoin="miter" d="M 0.000706029 9.499253 L 53.96946 9.499253 " stroke="#365b6d" stroke-width="19" stroke-opacity="1" stroke-miterlimit="4"/><path stroke-linecap="butt" transform="matrix(0.75, 0, 0, 0.75, 278.844421, 237.305125)" fill="none" stroke-linejoin="miter" d="M -0.000894119 9.499417 L 53.973068 9.499417 " stroke="#365b6d" stroke-width="19" stroke-opacity="1" stroke-miterlimit="4"/><g fill="#365b6d" fill-opacity="1"><g transform="translate(93.616316, 203.204005)"><g><path d="M 12.625 -4.671875 C 14.46875 -4.753906 15.878906 -5.398438 16.859375 -6.609375 C 17.035156 -6.796875 17.21875 -6.890625 17.40625 -6.890625 C 17.582031 -6.890625 17.738281 -6.820312 17.875 -6.6875 L 20.28125 -4.375 C 20.445312 -4.207031 20.53125 -4.039062 20.53125 -3.875 C 20.53125 -3.675781 20.472656 -3.503906 20.359375 -3.359375 C 19.429688 -2.210938 18.242188 -1.304688 16.796875 -0.640625 C 15.359375 0.015625 13.785156 0.34375 12.078125 0.34375 C 9.492188 0.34375 7.351562 -0.316406 5.65625 -1.640625 C 3.957031 -2.960938 2.816406 -4.769531 2.234375 -7.0625 C 1.890625 -8.300781 1.71875 -9.609375 1.71875 -10.984375 C 1.71875 -12.609375 1.875 -13.976562 2.1875 -15.09375 C 2.75 -17.175781 3.878906 -18.847656 5.578125 -20.109375 C 7.273438 -21.367188 9.285156 -22 11.609375 -22 C 14.359375 -22 16.535156 -21.1875 18.140625 -19.5625 C 19.753906 -17.9375 20.800781 -15.648438 21.28125 -12.703125 C 21.394531 -11.773438 21.476562 -10.75 21.53125 -9.625 C 21.53125 -9.15625 21.296875 -8.921875 20.828125 -8.921875 L 7.90625 -8.921875 C 7.738281 -8.921875 7.65625 -8.835938 7.65625 -8.671875 C 7.738281 -8.078125 7.835938 -7.640625 7.953125 -7.359375 C 8.234375 -6.492188 8.785156 -5.828125 9.609375 -5.359375 C 10.441406 -4.898438 11.445312 -4.671875 12.625 -4.671875 Z M 11.53125 -16.859375 C 10.625 -16.859375 9.867188 -16.640625 9.265625 -16.203125 C 8.671875 -15.773438 8.257812 -15.171875 8.03125 -14.390625 C 7.894531 -13.859375 7.8125 -13.503906 7.78125 -13.328125 C 7.75 -13.160156 7.816406 -13.078125 7.984375 -13.078125 L 15.140625 -13.078125 C 15.285156 -13.078125 15.359375 -13.132812 15.359375 -13.25 C 15.359375 -13.5625 15.300781 -13.882812 15.1875 -14.21875 C 14.9375 -15.03125 14.5 -15.671875 13.875 -16.140625 C 13.257812 -16.617188 12.476562 -16.859375 11.53125 -16.859375 Z M 11.53125 -16.859375 "/></g></g></g><g fill="#365b6d" fill-opacity="1"><g transform="translate(116.622395, 203.204005)"><g><path d="M 2.984375 0 C 2.503906 0 2.265625 -0.238281 2.265625 -0.71875 L 2.265625 -28.734375 C 2.265625 -29.203125 2.503906 -29.4375 2.984375 -29.4375 L 7.484375 -29.4375 C 7.960938 -29.4375 8.203125 -29.203125 8.203125 -28.734375 L 8.203125 -0.71875 C 8.203125 -0.238281 7.960938 0 7.484375 0 Z M 2.984375 0 "/></g></g></g><g fill="#365b6d" fill-opacity="1"><g transform="translate(127.094997, 203.204005)"><g><path d="M 26.15625 -21.953125 C 28.34375 -21.953125 30.050781 -21.289062 31.28125 -19.96875 C 32.519531 -18.65625 33.140625 -16.804688 33.140625 -14.421875 L 33.140625 -0.71875 C 33.140625 -0.238281 32.90625 0 32.4375 0 L 27.921875 0 C 27.453125 0 27.21875 -0.238281 27.21875 -0.71875 L 27.21875 -13.125 C 27.21875 -14.269531 26.921875 -15.175781 26.328125 -15.84375 C 25.742188 -16.519531 24.957031 -16.859375 23.96875 -16.859375 C 22.988281 -16.859375 22.191406 -16.519531 21.578125 -15.84375 C 20.960938 -15.175781 20.65625 -14.285156 20.65625 -13.171875 L 20.65625 -0.71875 C 20.65625 -0.238281 20.414062 0 19.9375 0 L 15.484375 0 C 15.003906 0 14.765625 -0.238281 14.765625 -0.71875 L 14.765625 -13.125 C 14.765625 -14.25 14.453125 -15.148438 13.828125 -15.828125 C 13.210938 -16.515625 12.414062 -16.859375 11.4375 -16.859375 C 10.539062 -16.859375 9.789062 -16.59375 9.1875 -16.0625 C 8.582031 -15.53125 8.226562 -14.789062 8.125 -13.84375 L 8.125 -0.71875 C 8.125 -0.238281 7.882812 0 7.40625 0 L 2.90625 0 C 2.425781 0 2.1875 -0.238281 2.1875 -0.71875 L 2.1875 -20.90625 C 2.1875 -21.382812 2.425781 -21.625 2.90625 -21.625 L 7.40625 -21.625 C 7.882812 -21.625 8.125 -21.382812 8.125 -20.90625 L 8.125 -19.5625 C 8.125 -19.445312 8.15625 -19.375 8.21875 -19.34375 C 8.289062 -19.320312 8.351562 -19.363281 8.40625 -19.46875 C 9.5625 -21.125 11.332031 -21.953125 13.71875 -21.953125 C 15.113281 -21.953125 16.328125 -21.664062 17.359375 -21.09375 C 18.398438 -20.519531 19.203125 -19.6875 19.765625 -18.59375 C 19.796875 -18.476562 19.84375 -18.425781 19.90625 -18.4375 C 19.976562 -18.457031 20.046875 -18.507812 20.109375 -18.59375 C 20.753906 -19.71875 21.59375 -20.554688 22.625 -21.109375 C 23.664062 -21.671875 24.84375 -21.953125 26.15625 -21.953125 Z M 26.15625 -21.953125 "/></g></g></g><g fill="#365b6d" fill-opacity="1"><g transform="translate(162.21396, 203.204005)"><g><path d="M 12.625 -4.671875 C 14.46875 -4.753906 15.878906 -5.398438 16.859375 -6.609375 C 17.035156 -6.796875 17.21875 -6.890625 17.40625 -6.890625 C 17.582031 -6.890625 17.738281 -6.820312 17.875 -6.6875 L 20.28125 -4.375 C 20.445312 -4.207031 20.53125 -4.039062 20.53125 -3.875 C 20.53125 -3.675781 20.472656 -3.503906 20.359375 -3.359375 C 19.429688 -2.210938 18.242188 -1.304688 16.796875 -0.640625 C 15.359375 0.015625 13.785156 0.34375 12.078125 0.34375 C 9.492188 0.34375 7.351562 -0.316406 5.65625 -1.640625 C 3.957031 -2.960938 2.816406 -4.769531 2.234375 -7.0625 C 1.890625 -8.300781 1.71875 -9.609375 1.71875 -10.984375 C 1.71875 -12.609375 1.875 -13.976562 2.1875 -15.09375 C 2.75 -17.175781 3.878906 -18.847656 5.578125 -20.109375 C 7.273438 -21.367188 9.285156 -22 11.609375 -22 C 14.359375 -22 16.535156 -21.1875 18.140625 -19.5625 C 19.753906 -17.9375 20.800781 -15.648438 21.28125 -12.703125 C 21.394531 -11.773438 21.476562 -10.75 21.53125 -9.625 C 21.53125 -9.15625 21.296875 -8.921875 20.828125 -8.921875 L 7.90625 -8.921875 C 7.738281 -8.921875 7.65625 -8.835938 7.65625 -8.671875 C 7.738281 -8.078125 7.835938 -7.640625 7.953125 -7.359375 C 8.234375 -6.492188 8.785156 -5.828125 9.609375 -5.359375 C 10.441406 -4.898438 11.445312 -4.671875 12.625 -4.671875 Z M 11.53125 -16.859375 C 10.625 -16.859375 9.867188 -16.640625 9.265625 -16.203125 C 8.671875 -15.773438 8.257812 -15.171875 8.03125 -14.390625 C 7.894531 -13.859375 7.8125 -13.503906 7.78125 -13.328125 C 7.75 -13.160156 7.816406 -13.078125 7.984375 -13.078125 L 15.140625 -13.078125 C 15.285156 -13.078125 15.359375 -13.132812 15.359375 -13.25 C 15.359375 -13.5625 15.300781 -13.882812 15.1875 -14.21875 C 14.9375 -15.03125 14.5 -15.671875 13.875 -16.140625 C 13.257812 -16.617188 12.476562 -16.859375 11.53125 -16.859375 Z M 11.53125 -16.859375 "/></g></g></g><g fill="#365b6d" fill-opacity="1"><g transform="translate(185.220039, 203.204005)"><g><path d="M 13.453125 -21.953125 C 15.703125 -21.953125 17.515625 -21.265625 18.890625 -19.890625 C 20.265625 -18.515625 20.953125 -16.648438 20.953125 -14.296875 L 20.953125 -0.71875 C 20.953125 -0.238281 20.710938 0 20.234375 0 L 15.734375 0 C 15.253906 0 15.015625 -0.238281 15.015625 -0.71875 L 15.015625 -13.078125 C 15.015625 -14.203125 14.707031 -15.113281 14.09375 -15.8125 C 13.476562 -16.507812 12.648438 -16.859375 11.609375 -16.859375 C 10.566406 -16.859375 9.722656 -16.507812 9.078125 -15.8125 C 8.441406 -15.113281 8.125 -14.203125 8.125 -13.078125 L 8.125 -0.71875 C 8.125 -0.238281 7.882812 0 7.40625 0 L 2.90625 0 C 2.425781 0 2.1875 -0.238281 2.1875 -0.71875 L 2.1875 -20.90625 C 2.1875 -21.382812 2.425781 -21.625 2.90625 -21.625 L 7.40625 -21.625 C 7.882812 -21.625 8.125 -21.382812 8.125 -20.90625 L 8.125 -19.734375 C 8.125 -19.617188 8.148438 -19.546875 8.203125 -19.515625 C 8.253906 -19.484375 8.3125 -19.507812 8.375 -19.59375 C 9.519531 -21.164062 11.210938 -21.953125 13.453125 -21.953125 Z M 13.453125 -21.953125 "/></g></g></g><g fill="#365b6d" fill-opacity="1"><g transform="translate(208.226118, 203.204005)"><g><path d="M 14.8125 -20.90625 C 14.8125 -21.382812 15.046875 -21.625 15.515625 -21.625 L 20.015625 -21.625 C 20.492188 -21.625 20.734375 -21.382812 20.734375 -20.90625 L 20.734375 -0.71875 C 20.734375 -0.238281 20.492188 0 20.015625 0 L 15.515625 0 C 15.046875 0 14.8125 -0.238281 14.8125 -0.71875 L 14.8125 -1.84375 C 14.8125 -1.957031 14.773438 -2.019531 14.703125 -2.03125 C 14.628906 -2.050781 14.566406 -2.019531 14.515625 -1.9375 C 13.421875 -0.445312 11.695312 0.296875 9.34375 0.296875 C 7.207031 0.296875 5.453125 -0.347656 4.078125 -1.640625 C 2.703125 -2.929688 2.015625 -4.738281 2.015625 -7.0625 L 2.015625 -20.90625 C 2.015625 -21.382812 2.253906 -21.625 2.734375 -21.625 L 7.1875 -21.625 C 7.664062 -21.625 7.90625 -21.382812 7.90625 -20.90625 L 7.90625 -8.53125 C 7.90625 -7.414062 8.207031 -6.503906 8.8125 -5.796875 C 9.414062 -5.097656 10.25 -4.75 11.3125 -4.75 C 12.269531 -4.75 13.054688 -5.035156 13.671875 -5.609375 C 14.285156 -6.191406 14.664062 -6.941406 14.8125 -7.859375 Z M 14.8125 -20.90625 "/></g></g></g><g fill="#365b6d" fill-opacity="1"><g transform="translate(231.148083, 203.204005)"><g><path d="M 5.546875 0.171875 C 4.453125 0.171875 3.539062 -0.1875 2.8125 -0.90625 C 2.082031 -1.625 1.71875 -2.484375 1.71875 -3.484375 C 1.71875 -4.472656 2.109375 -5.320312 2.890625 -6.03125 C 3.679688 -6.75 4.566406 -7.109375 5.546875 -7.109375 C 6.585938 -7.109375 7.5 -6.75 8.28125 -6.03125 C 9.070312 -5.320312 9.46875 -4.472656 9.46875 -3.484375 C 9.46875 -2.484375 9.085938 -1.625 8.328125 -0.90625 C 7.566406 -0.1875 6.640625 0.171875 5.546875 0.171875 Z M 5.546875 0.171875 "/></g></g></g><g fill="#365b6d" fill-opacity="1"><g transform="translate(242.377746, 203.204005)"><g><path d="M 14.59375 -17.578125 C 14.59375 -17.097656 14.351562 -16.859375 13.875 -16.859375 L 10.09375 -16.859375 C 9.925781 -16.859375 9.84375 -16.773438 9.84375 -16.609375 L 9.84375 -7.90625 C 9.84375 -6.976562 10.03125 -6.296875 10.40625 -5.859375 C 10.789062 -5.429688 11.398438 -5.21875 12.234375 -5.21875 L 13.421875 -5.21875 C 13.898438 -5.21875 14.140625 -4.976562 14.140625 -4.5 L 14.140625 -0.890625 C 14.140625 -0.429688 13.898438 -0.175781 13.421875 -0.125 C 12.347656 -0.0703125 11.578125 -0.046875 11.109375 -0.046875 C 8.773438 -0.046875 7.035156 -0.4375 5.890625 -1.21875 C 4.742188 -2 4.15625 -3.457031 4.125 -5.59375 L 4.125 -16.609375 C 4.125 -16.773438 4.039062 -16.859375 3.875 -16.859375 L 1.71875 -16.859375 C 1.25 -16.859375 1.015625 -17.097656 1.015625 -17.578125 L 1.015625 -20.90625 C 1.015625 -21.382812 1.25 -21.625 1.71875 -21.625 L 3.875 -21.625 C 4.039062 -21.625 4.125 -21.707031 4.125 -21.875 L 4.125 -26.625 C 4.125 -27.101562 4.363281 -27.34375 4.84375 -27.34375 L 9.125 -27.34375 C 9.601562 -27.34375 9.84375 -27.101562 9.84375 -26.625 L 9.84375 -21.875 C 9.84375 -21.707031 9.925781 -21.625 10.09375 -21.625 L 13.875 -21.625 C 14.351562 -21.625 14.59375 -21.382812 14.59375 -20.90625 Z M 14.59375 -17.578125 "/></g></g></g><g fill="#365b6d" fill-opacity="1"><g transform="translate(258.360026, 203.204005)"><g><path d="M 13.453125 -21.953125 C 15.703125 -21.953125 17.515625 -21.265625 18.890625 -19.890625 C 20.265625 -18.515625 20.953125 -16.648438 20.953125 -14.296875 L 20.953125 -0.71875 C 20.953125 -0.238281 20.710938 0 20.234375 0 L 15.734375 0 C 15.253906 0 15.015625 -0.238281 15.015625 -0.71875 L 15.015625 -13.078125 C 15.015625 -14.203125 14.707031 -15.113281 14.09375 -15.8125 C 13.476562 -16.507812 12.648438 -16.859375 11.609375 -16.859375 C 10.566406 -16.859375 9.722656 -16.507812 9.078125 -15.8125 C 8.441406 -15.113281 8.125 -14.203125 8.125 -13.078125 L 8.125 -0.71875 C 8.125 -0.238281 7.882812 0 7.40625 0 L 2.90625 0 C 2.425781 0 2.1875 -0.238281 2.1875 -0.71875 L 2.1875 -20.90625 C 2.1875 -21.382812 2.425781 -21.625 2.90625 -21.625 L 7.40625 -21.625 C 7.882812 -21.625 8.125 -21.382812 8.125 -20.90625 L 8.125 -19.734375 C 8.125 -19.617188 8.148438 -19.546875 8.203125 -19.515625 C 8.253906 -19.484375 8.3125 -19.507812 8.375 -19.59375 C 9.519531 -21.164062 11.210938 -21.953125 13.453125 -21.953125 Z M 13.453125 -21.953125 "/></g></g></g></svg>