<svg xmlns="http://www.w3.org/2000/svg" xmlns:xlink="http://www.w3.org/1999/xlink" width="500" zoomAndPan="magnify" viewBox="0 0 375 374.999991" height="500" preserveAspectRatio="xMidYMid meet" version="1.0"><defs><g/></defs><path stroke-linecap="butt" transform="matrix(-1.072996, 0, 0, -1.072996, 372.868456, 116.037612)" fill="none" stroke-linejoin="miter" d="M 0.00118222 9.500369 L 51.987612 9.500369 " stroke="#365b6d" stroke-width="19" stroke-opacity="1" stroke-miterlimit="4"/><path stroke-linecap="butt" transform="matrix(0, -1.072996, 1.072996, 0, 352.657131, 151.605357)" fill="none" stroke-linejoin="miter" d="M -0.00010392 9.5009 L 51.986325 9.5009 " stroke="#365b6d" stroke-width="19" stroke-opacity="1" stroke-miterlimit="4"/><path stroke-linecap="butt" transform="matrix(1.669855, 0, 0, 1.669855, 1.004373, 259.310666)" fill="none" stroke-linejoin="miter" d="M -0.000279627 5.998998 L 33.404559 5.998998 " stroke="#365b6d" stroke-width="12" stroke-opacity="1" stroke-miterlimit="4"/><path stroke-linecap="butt" transform="matrix(0, 1.669855, -1.669855, 0, 21.030587, 223.579337)" fill="none" stroke-linejoin="miter" d="M -0.000725523 5.999842 L 33.404113 5.999842 " stroke="#365b6d" stroke-width="12" stroke-opacity="1" stroke-miterlimit="4"/><path stroke-linecap="butt" transform="matrix(0, 1.072996, -1.072996, 0, 21.191954, 95.826308)" fill="none" stroke-linejoin="miter" d="M 0.00169329 9.498592 L 51.988123 9.498592 " stroke="#365b6d" stroke-width="19" stroke-opacity="1" stroke-miterlimit="4"/><path stroke-linecap="butt" transform="matrix(-1.072996, 0, 0, -1.072996, 56.759686, 116.037612)" fill="none" stroke-linejoin="miter" d="M 0.00174639 9.500369 L 51.988176 9.500369 " stroke="#365b6d" stroke-width="19" stroke-opacity="1" stroke-miterlimit="4"/><path stroke-linecap="butt" transform="matrix(0, -1.072996, 1.072996, 0, 354.403839, 279.348145)" fill="none" stroke-linejoin="miter" d="M 0.000455366 9.500328 L 53.970961 9.500328 " stroke="#365b6d" stroke-width="19" stroke-opacity="1" stroke-miterlimit="4"/><path stroke-linecap="butt" transform="matrix(1.072996, 0, 0, 1.072996, 317.089407, 258.75432)" fill="none" stroke-linejoin="miter" d="M 0.000407152 9.501336 L 53.970912 9.501336 " stroke="#365b6d" stroke-width="19" stroke-opacity="1" stroke-miterlimit="4"/><g fill="#365b6d" fill-opacity="1"><g transform="translate(52.09064, 209.967121)"><g><path d="M 18.0625 -6.6875 C 20.707031 -6.800781 22.734375 -7.722656 24.140625 -9.453125 C 24.378906 -9.734375 24.640625 -9.875 24.921875 -9.875 C 25.160156 -9.875 25.378906 -9.769531 25.578125 -9.5625 L 29.015625 -6.265625 C 29.253906 -6.015625 29.375 -5.769531 29.375 -5.53125 C 29.375 -5.25 29.289062 -5.007812 29.125 -4.8125 C 27.800781 -3.164062 26.101562 -1.867188 24.03125 -0.921875 C 21.96875 0.015625 19.71875 0.484375 17.28125 0.484375 C 13.582031 0.484375 10.519531 -0.457031 8.09375 -2.34375 C 5.664062 -4.226562 4.03125 -6.816406 3.1875 -10.109375 C 2.707031 -11.878906 2.46875 -13.742188 2.46875 -15.703125 C 2.46875 -18.035156 2.6875 -20.003906 3.125 -21.609375 C 3.925781 -24.578125 5.539062 -26.960938 7.96875 -28.765625 C 10.394531 -30.578125 13.273438 -31.484375 16.609375 -31.484375 C 20.546875 -31.484375 23.664062 -30.316406 25.96875 -27.984375 C 28.28125 -25.660156 29.773438 -22.390625 30.453125 -18.171875 C 30.617188 -16.847656 30.738281 -15.382812 30.8125 -13.78125 C 30.8125 -13.101562 30.472656 -12.765625 29.796875 -12.765625 L 11.3125 -12.765625 C 11.070312 -12.765625 10.953125 -12.644531 10.953125 -12.40625 C 11.078125 -11.5625 11.21875 -10.9375 11.375 -10.53125 C 11.78125 -9.289062 12.570312 -8.335938 13.75 -7.671875 C 14.9375 -7.015625 16.375 -6.6875 18.0625 -6.6875 Z M 16.484375 -24.140625 C 15.203125 -24.140625 14.128906 -23.828125 13.265625 -23.203125 C 12.410156 -22.578125 11.820312 -21.703125 11.5 -20.578125 C 11.289062 -19.816406 11.171875 -19.316406 11.140625 -19.078125 C 11.097656 -18.835938 11.195312 -18.71875 11.4375 -18.71875 L 21.671875 -18.71875 C 21.867188 -18.71875 21.96875 -18.796875 21.96875 -18.953125 C 21.96875 -19.398438 21.890625 -19.863281 21.734375 -20.34375 C 21.367188 -21.507812 20.742188 -22.429688 19.859375 -23.109375 C 18.972656 -23.796875 17.847656 -24.140625 16.484375 -24.140625 Z M 16.484375 -24.140625 "/></g></g></g><g fill="#365b6d" fill-opacity="1"><g transform="translate(85.004561, 209.967121)"><g><path d="M 4.265625 0 C 3.585938 0 3.25 -0.335938 3.25 -1.015625 L 3.25 -41.109375 C 3.25 -41.785156 3.585938 -42.125 4.265625 -42.125 L 10.71875 -42.125 C 11.394531 -42.125 11.734375 -41.785156 11.734375 -41.109375 L 11.734375 -1.015625 C 11.734375 -0.335938 11.394531 0 10.71875 0 Z M 4.265625 0 "/></g></g></g><g fill="#365b6d" fill-opacity="1"><g transform="translate(99.987314, 209.967121)"><g><path d="M 37.4375 -31.421875 C 40.5625 -31.421875 43.003906 -30.476562 44.765625 -28.59375 C 46.535156 -26.707031 47.421875 -24.054688 47.421875 -20.640625 L 47.421875 -1.015625 C 47.421875 -0.335938 47.082031 0 46.40625 0 L 39.96875 0 C 39.28125 0 38.9375 -0.335938 38.9375 -1.015625 L 38.9375 -18.78125 C 38.9375 -20.425781 38.515625 -21.726562 37.671875 -22.6875 C 36.828125 -23.65625 35.707031 -24.140625 34.3125 -24.140625 C 32.90625 -24.140625 31.757812 -23.65625 30.875 -22.6875 C 29.988281 -21.726562 29.546875 -20.445312 29.546875 -18.84375 L 29.546875 -1.015625 C 29.546875 -0.335938 29.207031 0 28.53125 0 L 22.15625 0 C 21.46875 0 21.125 -0.335938 21.125 -1.015625 L 21.125 -18.78125 C 21.125 -20.382812 20.679688 -21.675781 19.796875 -22.65625 C 18.921875 -23.644531 17.78125 -24.140625 16.375 -24.140625 C 15.082031 -24.140625 14.003906 -23.753906 13.140625 -22.984375 C 12.285156 -22.222656 11.773438 -21.160156 11.609375 -19.796875 L 11.609375 -1.015625 C 11.609375 -0.335938 11.269531 0 10.59375 0 L 4.15625 0 C 3.46875 0 3.125 -0.335938 3.125 -1.015625 L 3.125 -29.90625 C 3.125 -30.59375 3.46875 -30.9375 4.15625 -30.9375 L 10.59375 -30.9375 C 11.269531 -30.9375 11.609375 -30.59375 11.609375 -29.90625 L 11.609375 -27.984375 C 11.609375 -27.828125 11.660156 -27.726562 11.765625 -27.6875 C 11.867188 -27.644531 11.957031 -27.703125 12.03125 -27.859375 C 13.675781 -30.234375 16.207031 -31.421875 19.625 -31.421875 C 21.625 -31.421875 23.363281 -31.007812 24.84375 -30.1875 C 26.332031 -29.363281 27.476562 -28.171875 28.28125 -26.609375 C 28.320312 -26.441406 28.394531 -26.367188 28.5 -26.390625 C 28.601562 -26.410156 28.691406 -26.484375 28.765625 -26.609375 C 29.691406 -28.210938 30.894531 -29.414062 32.375 -30.21875 C 33.863281 -31.019531 35.550781 -31.421875 37.4375 -31.421875 Z M 37.4375 -31.421875 "/></g></g></g><g fill="#365b6d" fill-opacity="1"><g transform="translate(150.230677, 209.967121)"><g><path d="M 18.0625 -6.6875 C 20.707031 -6.800781 22.734375 -7.722656 24.140625 -9.453125 C 24.378906 -9.734375 24.640625 -9.875 24.921875 -9.875 C 25.160156 -9.875 25.378906 -9.769531 25.578125 -9.5625 L 29.015625 -6.265625 C 29.253906 -6.015625 29.375 -5.769531 29.375 -5.53125 C 29.375 -5.25 29.289062 -5.007812 29.125 -4.8125 C 27.800781 -3.164062 26.101562 -1.867188 24.03125 -0.921875 C 21.96875 0.015625 19.71875 0.484375 17.28125 0.484375 C 13.582031 0.484375 10.519531 -0.457031 8.09375 -2.34375 C 5.664062 -4.226562 4.03125 -6.816406 3.1875 -10.109375 C 2.707031 -11.878906 2.46875 -13.742188 2.46875 -15.703125 C 2.46875 -18.035156 2.6875 -20.003906 3.125 -21.609375 C 3.925781 -24.578125 5.539062 -26.960938 7.96875 -28.765625 C 10.394531 -30.578125 13.273438 -31.484375 16.609375 -31.484375 C 20.546875 -31.484375 23.664062 -30.316406 25.96875 -27.984375 C 28.28125 -25.660156 29.773438 -22.390625 30.453125 -18.171875 C 30.617188 -16.847656 30.738281 -15.382812 30.8125 -13.78125 C 30.8125 -13.101562 30.472656 -12.765625 29.796875 -12.765625 L 11.3125 -12.765625 C 11.070312 -12.765625 10.953125 -12.644531 10.953125 -12.40625 C 11.078125 -11.5625 11.21875 -10.9375 11.375 -10.53125 C 11.78125 -9.289062 12.570312 -8.335938 13.75 -7.671875 C 14.9375 -7.015625 16.375 -6.6875 18.0625 -6.6875 Z M 16.484375 -24.140625 C 15.203125 -24.140625 14.128906 -23.828125 13.265625 -23.203125 C 12.410156 -22.578125 11.820312 -21.703125 11.5 -20.578125 C 11.289062 -19.816406 11.171875 -19.316406 11.140625 -19.078125 C 11.097656 -18.835938 11.195312 -18.71875 11.4375 -18.71875 L 21.671875 -18.71875 C 21.867188 -18.71875 21.96875 -18.796875 21.96875 -18.953125 C 21.96875 -19.398438 21.890625 -19.863281 21.734375 -20.34375 C 21.367188 -21.507812 20.742188 -22.429688 19.859375 -23.109375 C 18.972656 -23.796875 17.847656 -24.140625 16.484375 -24.140625 Z M 16.484375 -24.140625 "/></g></g></g><g fill="#365b6d" fill-opacity="1"><g transform="translate(183.144598, 209.967121)"><g><path d="M 19.265625 -31.421875 C 22.472656 -31.421875 25.054688 -30.4375 27.015625 -28.46875 C 28.984375 -26.5 29.96875 -23.832031 29.96875 -20.46875 L 29.96875 -1.015625 C 29.96875 -0.335938 29.628906 0 28.953125 0 L 22.515625 0 C 21.828125 0 21.484375 -0.335938 21.484375 -1.015625 L 21.484375 -18.71875 C 21.484375 -20.320312 21.039062 -21.625 20.15625 -22.625 C 19.28125 -23.632812 18.097656 -24.140625 16.609375 -24.140625 C 15.128906 -24.140625 13.925781 -23.632812 13 -22.625 C 12.070312 -21.625 11.609375 -20.320312 11.609375 -18.71875 L 11.609375 -1.015625 C 11.609375 -0.335938 11.269531 0 10.59375 0 L 4.15625 0 C 3.46875 0 3.125 -0.335938 3.125 -1.015625 L 3.125 -29.90625 C 3.125 -30.59375 3.46875 -30.9375 4.15625 -30.9375 L 10.59375 -30.9375 C 11.269531 -30.9375 11.609375 -30.59375 11.609375 -29.90625 L 11.609375 -28.234375 C 11.609375 -28.066406 11.648438 -27.960938 11.734375 -27.921875 C 11.816406 -27.878906 11.898438 -27.921875 11.984375 -28.046875 C 13.617188 -30.296875 16.046875 -31.421875 19.265625 -31.421875 Z M 19.265625 -31.421875 "/></g></g></g><g fill="#365b6d" fill-opacity="1"><g transform="translate(216.058519, 209.967121)"><g><path d="M 21.1875 -29.90625 C 21.1875 -30.59375 21.523438 -30.9375 22.203125 -30.9375 L 28.65625 -30.9375 C 29.332031 -30.9375 29.671875 -30.59375 29.671875 -29.90625 L 29.671875 -1.015625 C 29.671875 -0.335938 29.332031 0 28.65625 0 L 22.203125 0 C 21.523438 0 21.1875 -0.335938 21.1875 -1.015625 L 21.1875 -2.640625 C 21.1875 -2.804688 21.132812 -2.898438 21.03125 -2.921875 C 20.9375 -2.941406 20.847656 -2.890625 20.765625 -2.765625 C 19.203125 -0.640625 16.734375 0.421875 13.359375 0.421875 C 10.304688 0.421875 7.796875 -0.5 5.828125 -2.34375 C 3.867188 -4.1875 2.890625 -6.773438 2.890625 -10.109375 L 2.890625 -29.90625 C 2.890625 -30.59375 3.226562 -30.9375 3.90625 -30.9375 L 10.296875 -30.9375 C 10.972656 -30.9375 11.3125 -30.59375 11.3125 -29.90625 L 11.3125 -12.21875 C 11.3125 -10.613281 11.742188 -9.304688 12.609375 -8.296875 C 13.472656 -7.296875 14.664062 -6.796875 16.1875 -6.796875 C 17.550781 -6.796875 18.675781 -7.207031 19.5625 -8.03125 C 20.445312 -8.851562 20.988281 -9.925781 21.1875 -11.25 Z M 21.1875 -29.90625 "/></g></g></g><g fill="#365b6d" fill-opacity="1"><g transform="translate(248.852102, 209.967121)"><g><path d="M 7.9375 0.234375 C 6.375 0.234375 5.070312 -0.273438 4.03125 -1.296875 C 2.988281 -2.316406 2.46875 -3.550781 2.46875 -5 C 2.46875 -6.40625 3.03125 -7.617188 4.15625 -8.640625 C 5.28125 -9.660156 6.539062 -10.171875 7.9375 -10.171875 C 9.425781 -10.171875 10.734375 -9.660156 11.859375 -8.640625 C 12.984375 -7.617188 13.546875 -6.40625 13.546875 -5 C 13.546875 -3.550781 13.003906 -2.316406 11.921875 -1.296875 C 10.835938 -0.273438 9.507812 0.234375 7.9375 0.234375 Z M 7.9375 0.234375 "/></g></g></g><g fill="#365b6d" fill-opacity="1"><g transform="translate(264.917953, 209.967121)"><g><path d="M 20.890625 -25.15625 C 20.890625 -24.476562 20.546875 -24.140625 19.859375 -24.140625 L 14.4375 -24.140625 C 14.195312 -24.140625 14.078125 -24.019531 14.078125 -23.78125 L 14.078125 -11.3125 C 14.078125 -9.988281 14.347656 -9.015625 14.890625 -8.390625 C 15.429688 -7.773438 16.304688 -7.46875 17.515625 -7.46875 L 19.203125 -7.46875 C 19.878906 -7.46875 20.21875 -7.125 20.21875 -6.4375 L 20.21875 -1.265625 C 20.21875 -0.617188 19.878906 -0.257812 19.203125 -0.1875 C 17.671875 -0.101562 16.566406 -0.0625 15.890625 -0.0625 C 12.554688 -0.0625 10.066406 -0.625 8.421875 -1.75 C 6.773438 -2.875 5.929688 -4.957031 5.890625 -8 L 5.890625 -23.78125 C 5.890625 -24.019531 5.769531 -24.140625 5.53125 -24.140625 L 2.46875 -24.140625 C 1.78125 -24.140625 1.4375 -24.476562 1.4375 -25.15625 L 1.4375 -29.90625 C 1.4375 -30.59375 1.78125 -30.9375 2.46875 -30.9375 L 5.53125 -30.9375 C 5.769531 -30.9375 5.890625 -31.054688 5.890625 -31.296875 L 5.890625 -38.09375 C 5.890625 -38.78125 6.234375 -39.125 6.921875 -39.125 L 13.0625 -39.125 C 13.738281 -39.125 14.078125 -38.78125 14.078125 -38.09375 L 14.078125 -31.296875 C 14.078125 -31.054688 14.195312 -30.9375 14.4375 -30.9375 L 19.859375 -30.9375 C 20.546875 -30.9375 20.890625 -30.59375 20.890625 -29.90625 Z M 20.890625 -25.15625 "/></g></g></g><g fill="#365b6d" fill-opacity="1"><g transform="translate(287.783193, 209.967121)"><g><path d="M 19.265625 -31.421875 C 22.472656 -31.421875 25.054688 -30.4375 27.015625 -28.46875 C 28.984375 -26.5 29.96875 -23.832031 29.96875 -20.46875 L 29.96875 -1.015625 C 29.96875 -0.335938 29.628906 0 28.953125 0 L 22.515625 0 C 21.828125 0 21.484375 -0.335938 21.484375 -1.015625 L 21.484375 -18.71875 C 21.484375 -20.320312 21.039062 -21.625 20.15625 -22.625 C 19.28125 -23.632812 18.097656 -24.140625 16.609375 -24.140625 C 15.128906 -24.140625 13.925781 -23.632812 13 -22.625 C 12.070312 -21.625 11.609375 -20.320312 11.609375 -18.71875 L 11.609375 -1.015625 C 11.609375 -0.335938 11.269531 0 10.59375 0 L 4.15625 0 C 3.46875 0 3.125 -0.335938 3.125 -1.015625 L 3.125 -29.90625 C 3.125 -30.59375 3.46875 -30.9375 4.15625 -30.9375 L 10.59375 -30.9375 C 11.269531 -30.9375 11.609375 -30.59375 11.609375 -29.90625 L 11.609375 -28.234375 C 11.609375 -28.066406 11.648438 -27.960938 11.734375 -27.921875 C 11.816406 -27.878906 11.898438 -27.921875 11.984375 -28.046875 C 13.617188 -30.296875 16.046875 -31.421875 19.265625 -31.421875 Z M 19.265625 -31.421875 "/></g></g></g></svg>